<svg role="img" aria-hidden="true" focusable="false" xmlns="http://www.w3.org/2000/svg" viewBox="0 0 48 48"><path fill="#534786" d="M38.63 47.88H9.37c-2.25 0-4.08-1.83-4.08-4.08V4.21C5.29 1.96 7.12.12 9.37.12h11.19c12.22 0 22.15 9.94 22.15 22.15v21.51c0 2.25-1.83 4.08-4.08 4.08ZM9.37 3.12c-.6 0-1.08.49-1.08 1.08v39.59c0 .6.49 1.08 1.08 1.08h29.26c.6 0 1.08-.49 1.08-1.08V23.14c0-3.44-2.8-6.25-6.25-6.25h-3.44c-2.25 0-4.08-1.83-4.08-4.08V9.37c0-3.44-2.8-6.25-6.25-6.25H9.36Zm18.14 1.31c.91 1.43 1.43 3.12 1.43 4.94v3.44c0 .6.49 1.08 1.08 1.08h3.44c1.82 0 3.51.53 4.94 1.43-1.95-4.98-5.92-8.95-10.9-10.9Z"/></svg>