<svg role="img" aria-hidden="true" focusable="false" xmlns="http://www.w3.org/2000/svg" viewBox="0 0 368 500"><path fill="#38296d" d="M217.46 172.9c3.21.12 5.97 1.74 7.73 4.15-1.87-10.24-10.64-18.17-21.48-18.56-12.52-.45-23.03 9.33-23.48 21.85-.45 12.52 9.33 23.03 21.85 23.48 9.4.34 17.67-5.1 21.4-13.13-1.83 1.51-4.18 2.42-6.74 2.33-5.55-.2-9.89-4.86-9.69-10.41.2-5.55 4.86-9.89 10.41-9.69ZM241.51 305.84c.58 1.92 1.13 3.86 1.73 5.77 14.04 44.97 33.94 88.75 56.42 124.27l67.75-130.04h-125.9ZM297.96 205.97c12.12-4.5 23.54-7.18 33.64-8.96-22.51-22.27-61.24-27.06-61.47-27.09 1.27 6.17.58 15.8-2.44 26.46-3.3 11.66-9.38 24.54-18.7 35.48-3.45 4.06-7.36 7.83-11.73 11.19h.07v-.01c.16.62.38 1.2.58 1.79 2.74 8.27 8.61 13.74 14.93 17.14 6.48 3.49 13.37 4.83 17.68 4.83 6.4 0 11.88-3.79 14.43-9.22.97-2.06 1.55-4.33 1.55-6.76 0-3.85-1.42-7.34-3.69-10.1-1.92-2.33-4.46-4.08-7.39-5.03l44.82-8.65c-6.63-6.12-14.72-11.59-22.73-16.23-1.97-1.14-1.69-4.05.45-4.84Z"/><path fill="#faa310" d="M281.37 458.37c-25.79-38.84-48.68-88.04-64.45-138.54-1.45-4.63-2.83-9.31-4.17-13.99-1.12-3.94-2.22-7.88-3.25-11.8-2.09-7.92-9.28-13.46-17.48-13.46h-27.95c-8.2 0-15.39 5.53-17.48 13.45-2.28 8.65-4.78 17.32-7.42 25.79-15.77 50.5-38.65 99.7-64.45 138.54-4.01 6.03-1.78 11.63-.64 13.76 2.4 4.47 6.86 7.14 11.94 7.14h66.01l3.97 6.92c4.54 7.9 12.99 12.81 22.05 12.81s17.51-4.91 22.06-12.81l3.98-6.92h66c3.22 0 6.19-1.08 8.55-3.02 1.35-1.11 2.51-2.49 3.38-4.13.57-1.07 1.42-3.02 1.61-5.46.19-2.41-.26-5.31-2.25-8.31Z"/><path fill="#38296d" d="M295.7 76.06c-7.54-12.05-32.38 1-59.54 2.86-15.04 1.03-37.05-110.63-71.77-56.99-39.56 61.1-79.12-44.68-88.66-15.83-21.11 43.27 25.15 84.61 25.15 84.61s-12.84 7.92-20.63 13.93c-5.47 4.17-10.82 8.65-16.03 13.51-20.45 19.03-36.04 40.32-46.77 63.86C6.72 205.55 1.11 229.59.62 254.15c-.49 24.56 4.01 49.1 13.54 73.63 9.52 24.53 24.17 47.42 43.95 68.68 4.02 4.32 8.12 8.41 12.31 12.3 4.1-6.31 7.97-12.74 11.64-19.26 4.39-7.8 8.5-15.72 12.25-23.78-.33-.35-.66-.69-.99-1.03-.17-.18-.34-.35-.51-.53-15.53-16.69-27.17-34.59-34.93-53.72-7.77-19.13-11.5-38.25-11.2-57.36.29-19.1 4.47-37.68 12.53-55.72 8.06-18.05 20.02-34.45 35.9-49.22 13.99-13.02 28.84-22.83 44.55-29.41 15.7-6.59 31.63-9.98 47.76-10.18 9.05-.11 19.11 1.15 29.51 4.5 10.32 4.27 19.22 9.44 26.63 15.35 10.19 8.13 17.61 17.65 22.22 28.1 1.91 4.32 3.37 8.8 4.32 13.41 16.27-28.27 36.75-75.96 25.57-93.83Z"/></svg>