<svg role="img" aria-hidden="true" focusable="false" xmlns="http://www.w3.org/2000/svg" viewBox="0 0 64 64"><path fill="#6b7280" d="M32.01 64c-5.36 0-10.35-3.43-12.07-8.8-.45-1.39-.65-2.83-.6-4.26a79.751 79.751 0 0 1-15.16-3.96c-.93-.35-1.64-1.13-1.87-2.1s.02-1.99.69-2.73c4.32-4.78 6.69-10.95 6.68-17.39v-2.42C9.67 10.02 19.69 0 32 0s22.34 10.02 22.34 22.34v2.42c0 6.44 2.36 12.62 6.67 17.4.67.74.92 1.76.69 2.73s-.94 1.75-1.87 2.1c-4.91 1.81-9.99 3.14-15.16 3.96.07 2.13-.4 4.25-1.4 6.2-1.55 3.01-4.18 5.23-7.4 6.27-1.28.41-2.58.6-3.86.6Zm-6.67-12.35c.03.58.13 1.15.31 1.71 1.12 3.5 4.88 5.44 8.38 4.32 1.7-.54 3.08-1.71 3.89-3.3.44-.86.69-1.79.74-2.73-4.43.36-8.89.37-13.33 0Zm-2.14-6.24c5.84.69 11.76.69 17.6 0 .04 0 .08 0 .11-.01 4.37-.52 8.69-1.43 12.9-2.72-3.57-5.26-5.49-11.49-5.48-17.92v-2.41c0-9.01-7.33-16.34-16.34-16.34s-16.32 7.32-16.32 16.33v2.42c0 6.43-1.91 12.66-5.48 17.92 4.2 1.29 8.52 2.2 12.9 2.72.04 0 .07 0 .11.01Zm13.64-7.99h-9.67c-1.11 0-2.12-.61-2.65-1.58-.52-.98-.46-2.16.15-3.08l6.56-9.84h-4.06c-1.66 0-3-1.34-3-3s1.34-3 3-3h9.67c1.11 0 2.12.61 2.65 1.58.52.98.46 2.16-.15 3.08l-6.56 9.84h4.06c1.66 0 3 1.34 3 3s-1.34 3-3 3Z"/></svg>