<svg role="img" aria-hidden="true" focusable="false" xmlns="http://www.w3.org/2000/svg" viewBox="0 0 48 48"><path fill="#6b7280" d="M27.22 47.88h-6.45c-2.11 0-3.89-1.51-4.24-3.59L16 41.1c-.07-.43-.39-.84-.85-1.1-.2-.11-.4-.22-.59-.34-.46-.28-.96-.35-1.38-.19l-3.02 1.13c-1.98.74-4.17-.05-5.23-1.87L1.7 33.14c-1.05-1.83-.64-4.13.99-5.47l2.5-2.05c.34-.28.53-.76.52-1.28v-.69c0-.53-.18-1-.52-1.28l-2.5-2.06c-1.63-1.34-2.04-3.64-.99-5.46l3.23-5.59c1.06-1.83 3.26-2.62 5.23-1.87l3.02 1.13c.42.16.92.09 1.37-.19.18-.11.38-.23.58-.34.47-.26.79-.67.86-1.1l.53-3.15v-.03c.35-2.08 2.13-3.59 4.24-3.59h6.45c2.11 0 3.89 1.51 4.24 3.59l.53 3.18c.07.44.38.84.85 1.1.19.1.39.22.59.34.46.27.96.34 1.37.19l3.02-1.13c1.97-.74 4.17.04 5.23 1.87l3.22 5.59c1.05 1.83.64 4.13-.99 5.47l-2.49 2.05c-.34.28-.53.75-.52 1.28v.69c-.01.53.18 1 .52 1.28l2.5 2.06c1.63 1.34 2.04 3.64.99 5.46l-3.23 5.59c-1.05 1.83-3.25 2.62-5.23 1.87l-3.03-1.13c-.42-.16-.92-.09-1.38.19-.19.12-.39.23-.59.34-.46.25-.78.67-.85 1.1l-.53 3.18c-.34 2.08-2.13 3.59-4.24 3.59ZM13.66 36.39c.84 0 1.69.24 2.46.7.16.1.33.19.5.29 1.28.71 2.13 1.88 2.36 3.23l.53 3.18c.11.63.64 1.08 1.28 1.08h6.45c.64 0 1.18-.46 1.28-1.08l.53-3.19c.23-1.35 1.09-2.53 2.35-3.23.17-.09.33-.19.49-.29 1.25-.75 2.7-.91 3.98-.43l3.03 1.13c.6.23 1.26-.01 1.58-.57l3.23-5.59c.32-.55.19-1.24-.3-1.65l-2.5-2.06c-1.06-.87-1.65-2.2-1.62-3.65v-.57c-.03-1.45.56-2.78 1.62-3.65l2.49-2.05c.49-.41.62-1.1.3-1.65l-3.22-5.59c-.32-.55-.98-.79-1.58-.56l-3.03 1.13c-1.28.48-2.73.32-3.97-.43-.16-.1-.32-.19-.49-.28-1.28-.71-2.14-1.89-2.37-3.23l-.53-3.19c-.1-.63-.64-1.08-1.28-1.08h-6.45c-.63 0-1.16.44-1.28 1.06v.03l-.53 3.18c-.22 1.35-1.08 2.52-2.36 3.23-.15.09-.32.18-.49.28-1.25.76-2.7.91-3.98.43l-3.02-1.13c-.6-.22-1.26.01-1.58.57l-3.22 5.59c-.32.55-.19 1.24.3 1.65l2.5 2.06c1.05.87 1.64 2.2 1.62 3.65v.58c.03 1.45-.56 2.78-1.62 3.65l-2.49 2.05c-.49.41-.62 1.1-.3 1.65l3.22 5.59c.32.55.98.79 1.58.56l3.03-1.13c.49-.18 1-.27 1.52-.27ZM24 32.96c-4.94 0-8.96-4.02-8.96-8.96s4.02-8.96 8.96-8.96 8.96 4.02 8.96 8.96-4.02 8.96-8.96 8.96Zm0-14.92c-3.29 0-5.96 2.67-5.96 5.96s2.67 5.96 5.96 5.96 5.96-2.67 5.96-5.96-2.67-5.96-5.96-5.96Z"/></svg>