<svg role="img" aria-hidden="true" focusable="false" xmlns="http://www.w3.org/2000/svg" viewBox="0 0 64 64"><path fill="#e73136" d="M32 63.9C14.41 63.9.1 49.59.1 32S14.41.1 32 .1 63.9 14.41 63.9 32 49.59 63.9 32 63.9Zm0-57.82C17.71 6.08 6.08 17.71 6.08 32S17.71 57.92 32 57.92 57.92 46.29 57.92 32 46.29 6.08 32 6.08Zm.03 41.47c-1.79 0-3.26-1.45-3.26-3.24s1.45-3.26 3.24-3.26h.03c1.79 0 3.24 1.45 3.24 3.24s-1.45 3.26-3.24 3.26ZM32 37.4c-1.71 0-3.1-1.34-3.1-2.99V18.65c0-1.65 1.39-2.99 3.1-2.99s3.1 1.34 3.1 2.99v15.76c0 1.65-1.39 2.99-3.1 2.99Z"/></svg>