<svg role="img" aria-hidden="true" focusable="false" xmlns="http://www.w3.org/2000/svg" viewBox="0 0 64 64"><path fill="#6b7280" d="M32 63.73C14.51 63.73.27 49.49.27 32S14.51.27 32 .27 63.73 14.5 63.73 32 49.5 63.73 32 63.73Zm0-58C17.51 5.73 5.73 17.52 5.73 32S17.52 58.27 32 58.27 58.27 46.48 58.27 32 46.49 5.73 32 5.73Zm1.2 41.4c-.42 0-.83-.05-1.24-.15-1.33-.33-2.46-1.17-3.16-2.34-.71-1.18-.91-2.56-.58-3.9l2.13-8.54c-1.25.36-2.62-.21-3.21-1.42-.66-1.35-.1-2.99 1.25-3.65l.13-.06c1.21-.6 2.6-.7 3.91-.27 1.3.44 2.36 1.35 2.97 2.58.55 1.1.69 2.36.39 3.54l-2.13 8.54c1.22-.36 2.58.19 3.19 1.37.69 1.34.16 2.98-1.18 3.67l-.13.07c-.74.37-1.54.56-2.34.56Zm-2.26-15.17Zm1.09-9.03c-1.65 0-3.02-1.34-3.02-2.99s1.34-3.01 2.99-3.01h.03c1.65 0 2.99 1.34 2.99 2.99s-1.34 3.01-2.99 3.01Z"/></svg>