<svg role="img" aria-hidden="true" focusable="false" xmlns="http://www.w3.org/2000/svg" viewBox="0 0 48 48"><path fill="#6b7280" d="M41.21 42.93H6.79c-3.8 0-6.88-3.09-6.88-6.88v-24.1C-.1 8.16 2.99 5.07 6.79 5.07h34.42c3.8 0 6.88 3.09 6.88 6.88v24.1c0 3.8-3.09 6.88-6.88 6.88ZM3.35 18.48v17.57c0 1.9 1.54 3.44 3.44 3.44h34.42c1.9 0 3.44-1.54 3.44-3.44V18.48L27.61 28.97c-2.23 1.37-4.99 1.37-7.22 0L3.35 18.48Zm0-5.97c0 1.19.63 2.31 1.64 2.93L22.2 26.03c1.11.69 2.5.69 3.61 0l17.21-10.59c1.02-.63 1.64-1.73 1.64-2.93v-.56c0-1.9-1.54-3.44-3.44-3.44H6.79c-1.9 0-3.44 1.54-3.44 3.44v.56Z"/></svg>
