<svg role="img" aria-hidden="true" focusable="false" xmlns="http://www.w3.org/2000/svg" viewBox="0 0 48 48"><path fill="#6b7280" d="M24 47.88c-1.12 0-2.24-.06-3.35-.17-.82-.09-1.42-.82-1.34-1.65s.82-1.42 1.65-1.34c2.02.21 4.06.21 6.08 0 .83-.09 1.56.51 1.65 1.34.09.82-.51 1.56-1.34 1.65-1.11.12-2.23.17-3.35.17Zm0-4.79c-1.7 0-3.39-.16-5.07-.48-.81-.15-1.35-.94-1.19-1.75.15-.81.94-1.35 1.75-1.19 3 .57 6.03.57 9.03 0 .82-.15 1.6.38 1.75 1.19.15.81-.38 1.6-1.19 1.75-1.68.32-3.38.48-5.07.48Zm4.8-4.8c-.83 0-1.5-.67-1.5-1.5v-.41c0-2.46 1.48-4.79 3.96-6.23 3.35-1.94 5.74-5.07 6.74-8.8 1-3.74.48-7.64-1.46-10.99-1.94-3.35-5.06-5.74-8.8-6.74-3.74-1-7.64-.48-10.99 1.46-3.35 1.94-5.74 5.06-6.74 8.8-1 3.74-.48 7.64 1.46 10.99 1.27 2.18 3.09 4.01 5.28 5.27 2.48 1.44 3.96 3.77 3.96 6.23v.41c0 .83-.67 1.5-1.5 1.5s-1.5-.67-1.5-1.5v-.41c0-1.38-.92-2.74-2.47-3.64C12.6 31.2 10.4 29 8.87 26.36 6.53 22.32 5.9 17.61 7.11 13.1c1.2-4.51 4.09-8.29 8.13-10.63C19.28.14 23.99-.48 28.5.72c4.51 1.2 8.29 4.09 10.63 8.13 2.34 4.04 2.97 8.75 1.76 13.26-1.2 4.51-4.09 8.29-8.13 10.63-1.54.9-2.46 2.25-2.46 3.64v.41c0 .83-.67 1.5-1.5 1.5Zm-4.8 0c-.83 0-1.5-.67-1.5-1.5v-9.77c-.7-.07-1.39-.2-2.07-.37-.8-.21-1.29-1.02-1.08-1.83.21-.8 1.02-1.29 1.83-1.08.92.24 1.87.4 2.82.36s0 0 .01 0c.95 0 1.89-.12 2.81-.36.8-.21 1.62.28 1.83 1.08.21.8-.28 1.62-1.08 1.83-.68.17-1.37.3-2.07.37v9.77c0 .83-.67 1.5-1.5 1.5Z"/></svg>